<?xml version="1.0" encoding="iso-8859-1"?>
<!-- Generator: Adobe Illustrator 19.0.0, SVG Export Plug-In . SVG Version: 6.00 Build 0)  -->
<svg version="1.1" id="Capa_1" xmlns="http://www.w3.org/2000/svg" xmlns:xlink="http://www.w3.org/1999/xlink" x="0px" y="0px"
	 viewBox="0 0 512.002 512.002" style="enable-background:new 0 0 512.002 512.002;" xml:space="preserve">
<path style="fill:#77767E;" d="M452.288,22.59c-6.249-12.811-16.72-20.693-29.483-22.197c-22.286-2.62-55.042,6.641-84.513,65.673
	c-15.179,30.407-27.649,70.628-35.037,112.488v94.036h91.826C441.035,196.955,476.034,71.274,452.288,22.59z"/>
<path style="fill:#C2C1C7;" d="M173.975,66.067C144.505,7.033,111.745-2.229,89.461,0.393C76.699,1.897,66.228,9.779,59.98,22.59
	c-23.686,48.561,11.077,173.727,56.86,249.423h92.109v-93.804C201.555,136.473,189.113,96.39,173.975,66.067z"/>
<path style="fill:#D4D4D6;" d="M424.277,361.848c0-0.001,0-0.001-0.001-0.002l-8.844-28.671c-0.001-0.003-0.002-0.005-0.003-0.007
	c-2.219-5.908-4.129-10.307-5.168-12.596c-9.107-41.437-26.442-77.105-50.174-103.217c-27.911-30.71-63.91-46.955-104.087-46.955
	c-40.437,0-76.396,15.825-103.997,45.755c-23.902,25.932-41.277,62.03-50.294,104.477c-1.04,2.308-2.927,6.675-5.125,12.549
	l-8.82,28.68c-3.589,14.964-6.057,32.207-4.718,48.91l7.287,29.291c0.001,0.001,0.001,0.002,0.001,0.003
	c4.708,10.147,11.906,19.274,22.413,26.522c39.237,27.071,136.556,44.246,140.685,44.966l2.579,0.45l2.569-0.45
	c4.139-0.72,101.627-18.004,140.915-45.216c10.387-7.198,17.514-16.235,22.203-26.272l7.318-29.287
	C430.365,394.075,427.876,376.823,424.277,361.848z"/>
<path style="fill:#F9D5A5;" d="M152.004,216.155c5.534-6.002,11.41-11.426,17.585-16.28l-28.454-74.234l-28.004,10.733
	l33.315,86.145C148.261,220.339,150.109,218.211,152.004,216.155z"/>
<path style="fill:#F9BE77;" d="M360.088,217.355c2.017,2.219,3.971,4.534,5.895,6.889l33.115-87.952l-28.067-10.567l-28.319,75.216
	C348.794,205.846,354.6,211.317,360.088,217.355z"/>
<g>
	<polygon style="fill:#AE4B00;" points="162.321,355.63 152.634,384.011 39.782,345.474 49.474,317.092 	"/>
	<polygon style="fill:#AE4B00;" points="146.546,432.676 52.58,445.021 48.674,415.286 142.647,402.935 	"/>
</g>
<path style="fill:#A8A7AD;" d="M424.277,361.848c0-0.001,0-0.001-0.001-0.002l-8.844-28.672c-0.001-0.002-0.002-0.005-0.003-0.007
	c-2.219-5.908-4.129-10.307-5.168-12.596c-9.107-41.437-26.442-77.105-50.174-103.217c-27.887-30.683-63.848-46.925-103.983-46.954
	v341.46h-0.897l0.803,0.14l2.569-0.45c4.139-0.72,101.627-18.004,140.915-45.216c10.387-7.198,17.514-16.235,22.203-26.271
	l7.318-29.287C430.365,394.075,427.876,376.823,424.277,361.848z"/>
<circle style="fill:#2E2E30;" cx="197.768" cy="309.841" r="16.328"/>
<circle style="fill:#1D1D1F;" cx="314.24" cy="309.841" r="16.328"/>
<polygon style="fill:#FF9A00;" points="289.033,380.538 256.001,435.124 222.97,380.538 "/>
<polygon style="fill:#D86100;" points="256.105,380.538 256.105,434.952 289.033,380.538 "/>
<g>
	<polygon style="fill:#803400;" points="472.22,345.474 359.368,384.011 349.681,355.63 462.528,317.092 	"/>
	<polygon style="fill:#803400;" points="463.33,415.286 459.422,445.021 365.456,432.676 369.355,402.935 	"/>
</g>
<g>
</g>
<g>
</g>
<g>
</g>
<g>
</g>
<g>
</g>
<g>
</g>
<g>
</g>
<g>
</g>
<g>
</g>
<g>
</g>
<g>
</g>
<g>
</g>
<g>
</g>
<g>
</g>
<g>
</g>
</svg>
