<svg height="512" viewBox="0 0 128 128" width="512" xmlns="http://www.w3.org/2000/svg"><g><g><path d="m108.812 74.5v-27.094a45.656 45.656 0 0 0 -45.656-45.656 45.656 45.656 0 0 0 -45.656 45.656v28.3a44.329 44.329 0 0 1 -4.477 19.414l-.8 1.636a44.321 44.321 0 0 0 -4.473 19.412v10.079h112.125v-8.867a44.327 44.327 0 0 0 -5.531-21.442 44.334 44.334 0 0 1 -5.532-21.438z" fill="#787780"/><path d="m51.058 37.533a4.782 4.782 0 1 1 -4.782-4.781 4.782 4.782 0 0 1 4.782 4.781z" fill="#3c3a41"/><path d="m76.942 37.533a4.782 4.782 0 1 0 4.781-4.781 4.782 4.782 0 0 0 -4.781 4.781z" fill="#3c3a41"/><path d="m38.514 69.886a6.489 6.489 0 0 0 6.486 6.489 6.485 6.485 0 0 0 4.538-1.851l5.224-5.111a6.491 6.491 0 0 1 4.538-1.85h9.4a6.492 6.492 0 0 1 4.539 1.85l5.223 5.111a6.489 6.489 0 0 0 4.538 1.851 6.489 6.489 0 0 0 6.489-6.489 18.261 18.261 0 0 0 -18.264-18.261h-14.45a18.261 18.261 0 0 0 -18.261 18.261z" fill="#57555c"/><g fill="#3c3a41"><path d="m78.458 74.524-5.223-5.111a6.492 6.492 0 0 0 -4.539-1.85h-9.396a6.491 6.491 0 0 0 -4.538 1.85l-5.223 5.111a6.478 6.478 0 0 1 -2.949 1.646 8.987 8.987 0 0 0 7.566 4.138h19.688a8.987 8.987 0 0 0 7.566-4.138 6.478 6.478 0 0 1 -2.952-1.646z"/><path d="m64 58.705a4.359 4.359 0 0 1 -4.359-4.36v-2.72h8.718v2.72a4.359 4.359 0 0 1 -4.359 4.36z"/><path d="m76.942 20.5a1.749 1.749 0 0 1 -1.262-2.961l8.433-8.791a28.569 28.569 0 0 1 20.511-8.748 1.75 1.75 0 1 1 0 3.5 25.057 25.057 0 0 0 -17.986 7.67l-8.433 8.791a1.741 1.741 0 0 1 -1.263.539z"/><path d="m114.749 24.5a1.75 1.75 0 0 1 -1.078-.372 19.037 19.037 0 0 0 -17.465-3.165l-8.185 2.581a1.75 1.75 0 0 1 -1.053-3.338l8.185-2.581a22.537 22.537 0 0 1 20.676 3.747 1.75 1.75 0 0 1 -1.08 3.128z"/><path d="m51.058 20.5a1.741 1.741 0 0 1 -1.263-.539l-8.433-8.791a25.06 25.06 0 0 0 -17.988-7.67 1.75 1.75 0 0 1 0-3.5 28.57 28.57 0 0 1 20.513 8.748l8.433 8.791a1.749 1.749 0 0 1 -1.262 2.961z"/><path d="m13.251 24.5a1.75 1.75 0 0 1 -1.08-3.128 22.542 22.542 0 0 1 20.676-3.747l8.185 2.581a1.75 1.75 0 0 1 -1.053 3.338l-8.185-2.581a19.038 19.038 0 0 0 -17.465 3.165 1.75 1.75 0 0 1 -1.078.372z"/><path d="m78 58.594a1.751 1.751 0 0 1 -1.379-2.827l4.916-6.3a23.513 23.513 0 0 1 18.647-9.1 1.75 1.75 0 0 1 0 3.5 20.034 20.034 0 0 0 -15.884 7.759l-4.916 6.3a1.746 1.746 0 0 1 -1.384.668z"/><path d="m82.564 65.751a1.751 1.751 0 0 1 -.779-3.319l7.444-3.689a17.245 17.245 0 0 1 15.511.124 1.75 1.75 0 1 1 -1.6 3.11 13.735 13.735 0 0 0 -12.351-.1l-7.444 3.69a1.742 1.742 0 0 1 -.781.184z"/><path d="m50 58.594a1.746 1.746 0 0 1 -1.38-.673l-4.916-6.3a20.037 20.037 0 0 0 -15.889-7.751 1.75 1.75 0 0 1 0-3.5 23.511 23.511 0 0 1 18.647 9.1l4.916 6.3a1.75 1.75 0 0 1 -1.378 2.824z"/><path d="m45.436 65.751a1.742 1.742 0 0 1 -.776-.183l-7.444-3.69a13.738 13.738 0 0 0 -12.351.1 1.75 1.75 0 1 1 -1.6-3.11 17.248 17.248 0 0 1 15.511-.124l7.444 3.689a1.751 1.751 0 0 1 -.779 3.319z"/></g></g><g><path d="m46.276 31a6.531 6.531 0 1 0 6.532 6.531 6.538 6.538 0 0 0 -6.532-6.531zm0 9.562a3.031 3.031 0 1 1 3.032-3.031 3.035 3.035 0 0 1 -3.032 3.033z"/><path d="m81.724 31a6.531 6.531 0 1 0 6.531 6.531 6.538 6.538 0 0 0 -6.531-6.531zm0 9.562a3.031 3.031 0 1 1 3.031-3.031 3.035 3.035 0 0 1 -3.031 3.033z"/><path d="m24.062 124.5h-14.562v-8.329a42.817 42.817 0 0 1 4.3-18.646l.8-1.636a46.342 46.342 0 0 0 4.65-20.182v-28.3a43.677 43.677 0 0 1 9.43-27.138 18.961 18.961 0 0 1 3.114.7l8.185 2.581a1.75 1.75 0 0 0 1.053-3.338l-8.185-2.581c-.5-.158-1.01-.294-1.518-.416a44.2 44.2 0 0 1 8.84-7.191c.408.372.809.752 1.193 1.152l8.438 8.785a1.749 1.749 0 1 0 2.525-2.422l-8.438-8.791c-.169-.177-.347-.344-.521-.516a43.9 43.9 0 0 1 40.71.554l-8.4 8.753a1.749 1.749 0 1 0 2.525 2.422l8.433-8.791c.177-.184.361-.359.543-.537a43.747 43.747 0 0 1 8.2 6.928c-.075.023-.151.04-.227.064l-8.185 2.581a1.75 1.75 0 0 0 1.053 3.338l8.185-2.581c.558-.176 1.122-.317 1.687-.439a44.13 44.13 0 0 1 5.792 9.963 1.75 1.75 0 1 0 3.229-1.35 47.656 47.656 0 0 0 -5-9.056 19.036 19.036 0 0 1 11.758 4.047 1.75 1.75 0 0 0 2.158-2.756 22.539 22.539 0 0 0 -16.5-4.637 47.275 47.275 0 0 0 -9.361-8.451 25.061 25.061 0 0 1 14.659-4.784 1.75 1.75 0 1 0 0-3.5 28.586 28.586 0 0 0 -17.82 6.3 47.449 47.449 0 0 0 -46.285-.536 28.591 28.591 0 0 0 -17.145-5.764 1.75 1.75 0 0 0 0 3.5 25.061 25.061 0 0 1 13.876 4.234 47.78 47.78 0 0 0 -10.095 8.88 22.532 22.532 0 0 0 -14.985 4.758 1.75 1.75 0 0 0 2.158 2.756 19.029 19.029 0 0 1 10.071-3.966 47.125 47.125 0 0 0 -8.65 27.244v28.3a42.817 42.817 0 0 1 -4.3 18.646l-.8 1.636a46.342 46.342 0 0 0 -4.65 20.18v10.079a1.751 1.751 0 0 0 1.75 1.753h16.312a1.75 1.75 0 0 0 0-3.5z"/><path d="m115.875 95.091a42.7 42.7 0 0 1 -5.313-20.6v-27.085a1.75 1.75 0 1 0 -3.5 0v27.094a46.2 46.2 0 0 0 5.75 22.289 42.685 42.685 0 0 1 5.313 20.6v7.111h-49.766a1.75 1.75 0 0 0 0 3.5h51.516a1.751 1.751 0 0 0 1.75-1.75v-8.87a46.193 46.193 0 0 0 -5.75-22.289z"/><path d="m50 124.5h-7.573a1.75 1.75 0 0 0 0 3.5h7.573a1.75 1.75 0 0 0 0-3.5z"/><path d="m82.17 78.083c.273.027.549.042.827.042a8.248 8.248 0 0 0 8.239-8.239 19.883 19.883 0 0 0 -1.473-7.5l1.021-.506a13.735 13.735 0 0 1 12.351.1 1.75 1.75 0 1 0 1.6-3.11 17.245 17.245 0 0 0 -15.511-.124l-1.07.53a20.14 20.14 0 0 0 -5.381-5.7l1.522-1.95a20.034 20.034 0 0 1 15.888-7.751 1.75 1.75 0 0 0 0-3.5 23.513 23.513 0 0 0 -18.647 9.1l-1.81 2.325a19.854 19.854 0 0 0 -8.5-1.922h-14.451a19.854 19.854 0 0 0 -8.5 1.922l-1.816-2.325a23.511 23.511 0 0 0 -18.647-9.1 1.75 1.75 0 0 0 0 3.5 20.037 20.037 0 0 1 15.888 7.751l1.522 1.95a20.126 20.126 0 0 0 -5.381 5.7l-1.07-.53a17.248 17.248 0 0 0 -15.511.124 1.75 1.75 0 1 0 1.6 3.11 13.738 13.738 0 0 1 12.351-.1l1.02.506a19.883 19.883 0 0 0 -1.472 7.5 8.248 8.248 0 0 0 8.241 8.239c.278 0 .554-.015.826-.042a10.7 10.7 0 0 0 8.327 3.975h19.691a10.691 10.691 0 0 0 8.326-3.975zm-15.561-24.708v.97a2.609 2.609 0 1 1 -5.218 0v-.97zm-26.345 16.511a16.4 16.4 0 0 1 1.123-5.94l3.273 1.622a1.75 1.75 0 0 0 1.555-3.136l-3.231-1.6a16.622 16.622 0 0 1 4.39-4.5l1.242 1.59a1.75 1.75 0 1 0 2.758-2.154l-.89-1.14a16.416 16.416 0 0 1 6.291-1.252h1.116v.97a6.109 6.109 0 1 0 12.218 0v-.97h1.116a16.416 16.416 0 0 1 6.291 1.252l-.891 1.14a1.75 1.75 0 0 0 2.759 2.154l1.242-1.59a16.622 16.622 0 0 1 4.39 4.5l-3.231 1.6a1.75 1.75 0 1 0 1.555 3.136l3.272-1.622a16.381 16.381 0 0 1 1.124 5.94 4.694 4.694 0 0 1 -6.261 4.47 4.6 4.6 0 0 1 -.488-.2 4.439 4.439 0 0 1 -.448-.235c-.083-.05-.163-.1-.242-.156a4.743 4.743 0 0 1 -.614-.5l-5.225-5.111a8.2 8.2 0 0 0 -5.758-2.341h-9.4a8.2 8.2 0 0 0 -5.763 2.349l-5.223 5.111a4.735 4.735 0 0 1 -.614.5c-.08.055-.161.107-.244.157a4.74 4.74 0 0 1 -.446.235 4.633 4.633 0 0 1 -.49.2 4.693 4.693 0 0 1 -6.26-4.47zm9.188 6.934a8.328 8.328 0 0 0 1.314-1.045l5.223-5.111a4.713 4.713 0 0 1 3.311-1.351h9.4a4.713 4.713 0 0 1 3.315 1.351l5.223 5.111a8.212 8.212 0 0 0 1.313 1.044 7.206 7.206 0 0 1 -4.7 1.739h-19.695a7.211 7.211 0 0 1 -4.704-1.738z"/></g></g></svg>