<svg height="512" viewBox="0 0 256 256" width="512" xmlns="http://www.w3.org/2000/svg"><circle cx="219.517" cy="95.517" fill="#fcc24c" r="31.023"/><circle cx="36.483" cy="95.517" fill="#fcc24c" r="31.023"/><path d="m219.517 64.493a31.339 31.339 0 0 0 -4.5.329 31.023 31.023 0 0 1 0 61.389 31.023 31.023 0 1 0 4.5-61.718z" fill="#dea42e"/><path d="m36.483 126.54a31.2 31.2 0 0 0 4.5-.329 31.023 31.023 0 0 1 0-61.389 31.023 31.023 0 1 0 -4.5 61.718z" fill="#fce06a"/><path d="m36.483 128.54a33.024 33.024 0 1 1 33.024-33.023 33.06 33.06 0 0 1 -33.024 33.023zm0-62.047a29.024 29.024 0 1 0 29.024 29.024 29.057 29.057 0 0 0 -29.024-29.024z" fill="#690589"/><path d="m219.517 128.54a33.024 33.024 0 1 1 33.023-33.023 33.061 33.061 0 0 1 -33.023 33.023zm0-62.047a29.024 29.024 0 1 0 29.023 29.024 29.057 29.057 0 0 0 -29.023-29.024z" fill="#690589"/><circle cx="128" cy="95.517" fill="#af5f40" r="91.517"/><path d="m128 134.222a117.778 117.778 0 0 0 -117.778 117.778h235.556a117.778 117.778 0 0 0 -117.778-117.778z" fill="#af5f40"/><path d="m128 134.222c-1.676 0-3.341.043-5 .113a117.775 117.775 0 0 1 112.778 117.665h10a117.778 117.778 0 0 0 -117.778-117.778z" fill="#914122"/><path d="m128 134.222c1.676 0 3.341.043 5 .113a117.775 117.775 0 0 0 -112.778 117.665h-10a117.778 117.778 0 0 1 117.778-117.778z" fill="#cd7d5e"/><path d="m245.778 254h-235.556a2 2 0 0 1 -2-2 119.778 119.778 0 0 1 239.556 0 2 2 0 0 1 -2 2zm-233.539-4h231.522a115.778 115.778 0 0 0 -231.522 0z" fill="#690589"/><path d="m22.7 235.5a1.908 1.908 0 0 1 -.2-.01 2 2 0 0 1 -1.793-2.186 71.024 71.024 0 0 1 2.338-12.349 2 2 0 0 1 3.849 1.09 67.044 67.044 0 0 0 -2.207 11.655 2 2 0 0 1 -1.987 1.8z" fill="#690589"/><path d="m128 4q-2.517 0-5 .138a91.516 91.516 0 0 1 0 182.762q2.484.134 5 .137a91.517 91.517 0 1 0 0-183.037z" fill="#914122"/><path d="m128 187.033q2.517 0 5-.137a91.516 91.516 0 0 1 0-182.758q-2.484-.138-5-.138a91.517 91.517 0 1 0 0 183.033z" fill="#cd7d5e"/><path d="m128 64.6v.007c-12.508-21.665-42.824-24.813-59.092-5.807a77.739 77.739 0 1 0 118.041-.167c-16.261-18.89-46.483-15.619-58.949 5.967z" fill="#fcc24c"/><g fill="#690589"><path d="m128 189.033a93.517 93.517 0 1 1 93.517-93.516 93.623 93.623 0 0 1 -93.517 93.516zm0-183.033a89.517 89.517 0 1 0 89.517 89.517 89.619 89.619 0 0 0 -89.517-89.517z"/><path d="m128.041 189.034q-1.905 0-3.818-.088c-40.977-1.891-74.316-35.492-75.9-76.494a79.526 79.526 0 0 1 19.066-54.952 37.541 37.541 0 0 1 32.377-13.067 38.778 38.778 0 0 1 28.234 16.443 38.833 38.833 0 0 1 28.222-16.465 37.4 37.4 0 0 1 32.243 12.916 79.732 79.732 0 0 1 -60.424 131.707zm-31.927-140.77a33.487 33.487 0 0 0 -25.686 11.836 75.531 75.531 0 0 0 -18.109 52.2c1.5 38.943 33.17 70.855 72.088 72.652a75.73 75.73 0 0 0 61.027-125.016 33.464 33.464 0 0 0 -28.834-11.542 34.805 34.805 0 0 0 -26.858 17.2 2 2 0 0 1 -1.742 1.011 2 2 0 0 1 -1.732-1 34.3 34.3 0 0 0 -26.868-17.19q-1.655-.151-3.286-.151z"/><path d="m138.727 162.593a12.741 12.741 0 0 1 -12.727-12.726 2 2 0 1 1 4 0 8.727 8.727 0 0 0 17.453 0 2 2 0 0 1 4 0 12.741 12.741 0 0 1 -12.726 12.726z"/><path d="m117.273 162.593a12.741 12.741 0 0 1 -12.726-12.726 2 2 0 0 1 4 0 8.727 8.727 0 0 0 17.453 0v-9.8a2 2 0 1 1 4 0v9.8a12.741 12.741 0 0 1 -12.727 12.726z"/></g><path d="m139.7 128.374a11.7 11.7 0 0 1 -23.392 0z" fill="#ff4397"/><path d="m128 142.069a13.711 13.711 0 0 1 -13.7-13.695 2 2 0 0 1 2-2h23.4a2 2 0 0 1 2 2 13.711 13.711 0 0 1 -13.7 13.695zm-9.488-11.695a9.7 9.7 0 0 0 18.976 0z" fill="#690589"/><circle cx="97.705" cy="100.89" fill="#f4efed" r="7.7" transform="matrix(.707 -.707 .707 .707 -42.723 98.638)"/><circle cx="158.295" cy="100.89" fill="#f4efed" r="7.7" transform="matrix(.16 -.987 .987 .16 33.352 240.98)"/><path d="m97.706 110.59a9.7 9.7 0 1 1 9.7-9.7 9.711 9.711 0 0 1 -9.7 9.7zm0-15.4a5.7 5.7 0 1 0 5.7 5.7 5.706 5.706 0 0 0 -5.7-5.7z" fill="#690589"/><path d="m158.294 110.59a9.7 9.7 0 1 1 9.7-9.7 9.712 9.712 0 0 1 -9.7 9.7zm0-15.4a5.7 5.7 0 1 0 5.7 5.7 5.706 5.706 0 0 0 -5.7-5.7z" fill="#690589"/></svg>