<svg id="Capa_1" enable-background="new 0 0 512 512" height="512" viewBox="0 0 512 512" width="512" xmlns="http://www.w3.org/2000/svg"><g><path d="m256 166h-135v195c0 69.421 52.597 125.936 120 133.488l15-28.488 15 28.488c67.403-7.551 120-64.067 120-133.488v-195z" fill="#fff7cc"/><path d="m391 361v-195h-135v300l15 28.488c67.403-7.552 120-64.067 120-133.488z" fill="#ffe6b3"/><path d="m256 406c-8.291 0-15 6.709-15 15v73.488c4.99.558 9.862 1.512 15 1.512s10.01-.954 15-1.512v-73.488c0-8.291-6.709-15-15-15z" fill="#704c55"/><path d="m271 421c0-8.291-6.709-15-15-15v90c5.138 0 10.01-.954 15-1.512z" fill="#5a344b"/><g><path d="m121 226h-106c-8.291 0-15-6.709-15-15 0-57.891 48.109-105 106-105h15c33.091 0 60 26.909 60 60s-26.909 60-60 60z" fill="#ffe6b3"/></g><g><path d="m497 226h-106c-33.091 0-60-26.909-60-60s26.909-60 60-60h15c57.891 0 106 47.109 106 105 0 8.291-6.709 15-15 15z" fill="#ffca80"/></g><circle cx="196" cy="271" fill="#704c55" r="15"/><circle cx="316" cy="271" fill="#5a344b" r="15"/><path d="m296.605 380.395c-5.859-5.859-15.352-5.859-21.211 0l-19.394 19.394-19.395-19.395c-5.859-5.859-15.352-5.859-21.211 0s-5.859 15.352 0 21.211l30 30c2.93 2.93 6.768 4.395 10.605 4.395s7.676-1.465 10.605-4.395l30-30c5.861-5.859 5.861-15.351.001-21.21z" fill="#704c55"/><path d="m296.605 401.605c5.859-5.859 5.859-15.352 0-21.211s-15.352-5.859-21.211 0l-19.394 19.395v36.211c3.838 0 7.676-1.465 10.605-4.395z" fill="#5a344b"/><path d="m331 46c-4.688 0-9.346.571-13.916 1.714-13.887-19.614-36.621-31.714-61.084-31.714s-47.197 12.1-61.084 31.714c-4.57-1.143-9.228-1.714-13.916-1.714-33.091 0-60 26.909-60 60 0 20.933 11.133 40.444 28.799 51.255.879 2.534 1.377 4.819 1.479 6.46-.732 16.406 5.098 31.948 16.436 43.799 11.235 11.748 27.012 18.486 43.286 18.486 17.9 0 33.999-7.881 45-20.361 11.001 12.48 27.1 20.361 45 20.361 16.26 0 31.479-6.401 42.861-18.018s17.461-26.982 17.124-43.212c-.044-2.358.381-4.878 1.245-7.529 17.652-10.826 28.77-30.323 28.77-51.241 0-33.091-26.909-60-60-60z" fill="#deecf1"/><path d="m343.861 207.982c11.382-11.616 17.461-26.982 17.124-43.213-.044-2.358.381-4.878 1.245-7.529 17.652-10.825 28.77-30.322 28.77-51.24 0-33.091-26.909-60-60-60-4.688 0-9.346.571-13.916 1.714-13.887-19.614-36.621-31.714-61.084-31.714v189.639c11.001 12.48 27.1 20.361 45 20.361 16.26 0 31.479-6.401 42.861-18.018z" fill="#c6e2e7"/></g></svg>