<svg id="Capa_1" enable-background="new 0 0 128 128" height="512" viewBox="0 0 128 128" width="512" xmlns="http://www.w3.org/2000/svg"><g><g><path d="m87.115 41.132s19.908-17.455 34.385-.37c-3.937 11.9-7.22 14.395-12.179 16.149s-23.426-1.2-23.426-1.2z" fill="#663325"/><path d="m121.5 40.76c-13.06-3.14-32.69 3.68-32.69 3.68l-2.01.48.32-3.79s19.9-17.45 34.38-.37z" fill="#51221c"/><path d="m40.885 41.132s-19.908-17.455-34.385-.37c3.937 11.9 7.22 14.395 12.179 16.149s23.426-1.2 23.426-1.2z" fill="#663325"/><path d="m6.5 40.76c13.06-3.14 32.69 3.68 32.69 3.68l2.01.48-.32-3.79s-19.9-17.45-34.38-.37z" fill="#51221c"/><g fill="#663325"><path d="m70.605 34.609c15.033-11.948 21.376-21.919 23.569-26.056.621-1.177 1.99-1.748 3.263-1.362 1.087.33 1.866 1.286 1.97 2.417 1.91 20.805-15.893 39.351-15.893 39.351z"/><path d="m57.4 34.609c-15.038-11.948-21.381-21.919-23.574-26.056-.621-1.177-1.99-1.748-3.263-1.362-1.087.33-1.866 1.286-1.97 2.417-1.91 20.805 15.893 39.351 15.893 39.351z"/></g><path d="m95.894 53.332c-5.047 25.382-11.539 31.533-13.902 44.068-2.45 13.043-8.308 17.27-17.992 17.27s-15.542-4.227-17.992-17.27c-2.363-12.535-8.855-18.686-13.9-44.068-4.044-20.375 10.414-33.662 31.892-33.662s35.936 13.287 31.894 33.662z" fill="#eaeaf0"/><path d="m95.89 53.33c-1.697 9.012-4.29 17.833-7.74 26.33-18.43 1.97-23.59-17.44-21.77-26.16 4.22-20.24-2.88-15.83 2.98-33.54 18.46 2.04 30.23 14.75 26.53 33.37z" fill="#bdbdc6"/><path d="m73.6 98.953h-19.2c-6.226-.059-11.321 4.941-11.38 11.167s4.941 11.321 11.167 11.38c.071.001.142.001.213 0h19.2c6.226.059 11.321-4.941 11.38-11.167s-4.941-11.321-11.167-11.38c-.071-.001-.142-.001-.213 0z" fill="#bdbdc6"/><g fill="#663325"><circle cx="50.583" cy="48.959" r="3"/><circle cx="77.417" cy="48.959" r="3"/></g></g><g fill="#072130"><path d="m4.839 41.309c4.008 12.1 7.469 15.208 13.259 17.251 1.895.519 3.86.739 5.823.654 2.086 0 4.629-.145 7.568-.418 1.941 8.578 4.679 16.956 8.179 25.025 1.967 4.743 3.665 8.839 4.622 13.9.227 1.215.5 2.348.786 3.429-5.02 5.14-4.923 13.377.218 18.398 2.434 2.377 5.702 3.706 9.104 3.702h19.202c7.185.008 13.016-5.81 13.024-12.996.004-3.402-1.325-6.67-3.702-9.104.289-1.081.559-2.213.786-3.426.957-5.065 2.655-9.162 4.622-13.9.883-2.128 1.8-4.329 2.751-6.857.36-.897-.076-1.916-.973-2.276s-1.916.076-2.276.973c-.009.021-.017.043-.025.065-.3.782-.587 1.526-.876 2.255-5.508.341-10.043-1.372-13.467-5.153-5.232-5.779-6.292-14.572-5.374-18.971 2.086-10 1.487-14.183.959-17.872-.5-3.512-.9-6.334 1.53-14.1 3.839.508 7.567 1.651 11.031 3.383.119.079.247.143.381.191 2.948 1.537 5.561 3.645 7.687 6.2 1.339 1.633 2.436 3.45 3.259 5.395.006.02.014.04.022.059l.012.02c1.985 5.047 2.403 10.575 1.2 15.863-.593 2.988-1.242 5.877-1.929 8.588-.237.937.33 1.889 1.267 2.126s1.889-.33 2.126-1.266c.3-1.181.589-2.4.873-3.64 2.939.273 5.483.418 7.569.418 1.963.085 3.928-.135 5.823-.654 5.79-2.043 9.251-5.146 13.259-17.251 0 0 .329-.948-.381-1.749-6.935-8.131-16.4-10.152-26.839-5.8 4.16-8.466 5.915-16.64 5.212-24.327-.233-2.497-2.445-4.332-4.942-4.099-1.523.142-2.872 1.042-3.589 2.393-2.839 5.076-6.336 9.756-10.4 13.916-3.98-1.824-8.235-2.979-12.591-3.418-.05-.007-.1-.013-.151-.016-1.82-.198-3.649-.298-5.479-.3-12.213 0-22.294 4.089-28.387 11.513-.376.458-.729.928-1.07 1.405-3.4-7.379-4.816-14.453-4.211-21.058.041-.425.331-.786.738-.916.471-.139.975.069 1.211.5 1.757 3.232 3.812 6.293 6.137 9.143.603.756 1.704.879 2.46.276s.879-1.704.276-2.46c-2.192-2.68-4.128-5.559-5.783-8.6-1.181-2.211-3.931-3.046-6.142-1.864-1.349.721-2.244 2.072-2.382 3.595-.7 7.677 1.053 15.85 5.214 24.316-10.445-4.351-19.907-2.332-26.84 5.8.001 0-.709.764-.381 1.739zm111.453-3.041c-6.282-.205-12.562.445-18.669 1.932-.227-1.009-.512-2.003-.854-2.979 5.656-2.473 12.922-3.713 19.523 1.047zm-85.061-1.049c-.342.976-.627 1.971-.854 2.98-6.108-1.486-12.389-2.134-18.671-1.929 6.602-4.764 13.869-3.523 19.525-1.051zm-11.969 18.041c-3.946-1.392-6.87-3.138-10.447-13.166 7-1.106 15.55.327 21.006 1.569-.301 3.346-.108 6.718.573 10.008.114.577.231 1.127.347 1.685-8.008.716-10.682.185-11.479-.096zm46.325-18.778c.487 3.4 1.04 7.259-.92 16.661-1.249 5.979.5 15.734 6.2 22.034 3.723 4.135 9.053 6.456 14.616 6.364-.129.314-.26.63-.388.939-2.042 4.923-3.8 9.175-4.829 14.6-.114.608-.242 1.186-.372 1.757-1.924-1.073-4.091-1.636-6.294-1.637h-10.183c-.966 0-1.75.784-1.75 1.75s.784 1.75 1.75 1.75h10.183c5.26.054 9.48 4.362 9.426 9.621-.053 5.183-4.242 9.373-9.426 9.426h-19.2c-5.26-.054-9.48-4.362-9.426-9.621.053-5.183 4.242-9.373 9.426-9.426h1.6c.966 0 1.75-.784 1.75-1.75s-.784-1.75-1.75-1.75h-1.6c-2.205-.002-4.373.56-6.3 1.632-.13-.572-.258-1.151-.372-1.76-1.024-5.42-2.787-9.671-4.828-14.594-4.105-9.466-7.148-19.357-9.074-29.493-1.203-5.288-.785-10.815 1.2-15.862l.012-.02c.01-.019.013-.039.022-.058.822-1.947 1.92-3.765 3.259-5.4 5.415-6.591 14.536-10.225 25.681-10.225 1.031 0 2.037.041 3.032.1-2.432 8.028-1.974 11.269-1.445 14.962zm19.806-13.109c4.019-4.207 7.487-8.91 10.318-13.993.234-.438.742-.652 1.219-.516.404.128.694.484.737.906.606 6.614-.813 13.689-4.21 21.068-.341-.477-.694-.947-1.07-1.405-1.98-2.393-4.343-4.441-6.994-6.06zm23.345 31.887c-.8.281-3.47.813-11.477.1.116-.56.233-1.119.345-1.685.681-3.29.874-6.663.573-10.009 5.456-1.243 14-2.675 21.006-1.569-3.577 10.025-6.501 11.771-10.447 13.163z"/><path d="m92.932 65.814c-.926-.272-1.899.254-2.177 1.179-.319 1.076-.639 2.106-.96 3.09-.315.914.171 1.91 1.085 2.224.914.315 1.91-.171 2.224-1.085.007-.019.013-.038.019-.058.329-1.012.658-2.07.987-3.174.275-.925-.252-1.9-1.178-2.176z"/><path d="m45.142 71.825c-.314-.914-1.309-1.401-2.223-1.087s-1.401 1.309-1.087 2.223c.006.018.013.036.019.053 1.043 2.883 2.069 5.394 3.117 7.924.343.904 1.353 1.358 2.257 1.016s1.358-1.353 1.016-2.257c-.013-.033-.026-.066-.041-.098-1.03-2.491-2.041-4.96-3.058-7.774z"/><path d="m71.14 112.832c.848.464 1.911.153 2.376-.694l1.171-2.138c.464-.848.154-1.912-.694-2.376s-1.912-.154-2.376.694l-1.172 2.141c-.462.847-.151 1.909.695 2.373z"/><path d="m56.383 108.315c-.465-.848-1.53-1.158-2.378-.693s-1.158 1.53-.693 2.378l1.172 2.141c.479.84 1.549 1.132 2.389.652.819-.468 1.12-1.5.682-2.334z"/><path d="m50.583 44.209c-2.623 0-4.75 2.127-4.75 4.75s2.127 4.75 4.75 4.75 4.75-2.127 4.75-4.75c-.003-2.622-2.128-4.747-4.75-4.75zm0 6c-.69 0-1.25-.56-1.25-1.25s.56-1.25 1.25-1.25 1.25.56 1.25 1.25c-.001.69-.56 1.249-1.25 1.25z"/><path d="m72.667 48.959c0 2.623 2.127 4.75 4.75 4.75s4.75-2.127 4.75-4.75-2.127-4.75-4.75-4.75c-2.622.003-4.747 2.128-4.75 4.75zm6 0c0 .69-.56 1.25-1.25 1.25s-1.25-.56-1.25-1.25.56-1.25 1.25-1.25c.69.001 1.249.56 1.25 1.25z"/></g></g></svg>