<?xml version="1.0"?>
<svg xmlns="http://www.w3.org/2000/svg" width="512" height="512" viewBox="0 0 128 128"><g><g><path d="M50.884,88.244l.757,6.086a12.454,12.454,0,0,0,24.718,0l.757-6.086a42.542,42.542,0,0,1,33.163-36.3,40,40,0,0,0-36.061-22.7H53.782a40,40,0,0,0-36.061,22.7A42.542,42.542,0,0,1,50.884,88.244Z" fill="#fd4e26"/><path d="M111.328,54.306c-.324-.8-.677-1.593-1.049-2.367A42.542,42.542,0,0,0,77.116,88.244l-.757,6.086a12.454,12.454,0,0,1-24.718,0l-.757-6.086a42.542,42.542,0,0,0-33.163-36.3c-.372.774-.725,1.562-1.049,2.367L6.742,78.989l18.094,5.652A22.768,22.768,0,0,1,40.39,101.993a22.767,22.767,0,0,0,22.341,18.388h2.538A22.767,22.767,0,0,0,87.61,101.993a22.766,22.766,0,0,1,15.554-17.352l18.094-5.652Z" fill="#fec478"/><path d="M71.062,100.185a7.063,7.063,0,1,0-14.125,0c0,3.3,2.265,4.633,5.322,4.968a.714.714,0,0,0-.009.093v15.113c.161,0,.319.021.481.021h2.538c.162,0,.32-.017.481-.021V105.246a.714.714,0,0,0-.009-.093C68.8,104.818,71.062,103.484,71.062,100.185Z" fill="#3c3a41"/><path d="M18.529,50.338A40,40,0,0,1,48.788,29.552,34.006,34.006,0,0,0,17,7.619H1.75V21.025A33.977,33.977,0,0,0,18.529,50.338Z" fill="#fd3018"/><path d="M23.014,43.68A40.044,40.044,0,0,1,40.892,31.372,26.038,26.038,0,0,0,17,15.619H9.75v5.406A26.014,26.014,0,0,0,23.014,43.68Z" fill="#3c3a41"/><path d="M109.471,50.338A40,40,0,0,0,79.212,29.552,34.006,34.006,0,0,1,111,7.619h15.25V21.025A33.977,33.977,0,0,1,109.471,50.338Z" fill="#fd3018"/><path d="M104.986,43.68A40.044,40.044,0,0,0,87.108,31.372,26.038,26.038,0,0,1,111,15.619h7.25v5.406A26.014,26.014,0,0,1,104.986,43.68Z" fill="#3c3a41"/><path d="M87.631,78.1a1.749,1.749,0,0,1-1.315-2.9c3.967-4.519,10.407-6.464,10.678-6.544a1.75,1.75,0,0,1,1,3.355h0c-.057.017-5.755,1.751-9.043,5.5A1.746,1.746,0,0,1,87.631,78.1Z" fill="#3c3a41"/><path d="M40.368,78.1a1.747,1.747,0,0,1-1.316-.6c-3.288-3.746-8.985-5.48-9.042-5.5a1.75,1.75,0,0,1,.995-3.355c.272.08,6.711,2.025,10.678,6.544a1.749,1.749,0,0,1-1.315,2.9Z" fill="#3c3a41"/></g><g><path d="M86.767,66.074a1.75,1.75,0,0,0-2.456.31,44.3,44.3,0,0,0-3.986,6.124,1.749,1.749,0,1,0,3.08,1.66,40.956,40.956,0,0,1,3.672-5.639A1.75,1.75,0,0,0,86.767,66.074Z"/><path d="M128,21.025V7.62a1.749,1.749,0,0,0-1.75-1.75H111A35.939,35.939,0,0,0,78.1,27.691c-1.286-.122-2.579-.206-3.884-.206H53.782c-1.306,0-2.6.084-3.885.206A35.94,35.94,0,0,0,17,5.87H1.75A1.75,1.75,0,0,0,0,7.62v13.4A35.912,35.912,0,0,0,16.255,50.967c-.035.072-.076.139-.111.212v0c-.418.871-.776,1.679-1.1,2.47L5.119,78.336a1.75,1.75,0,0,0,1.1,2.324l18.094,5.651A21,21,0,0,1,38.672,102.33a24.565,24.565,0,0,0,24.059,19.8h2.538a24.565,24.565,0,0,0,24.059-19.8,21,21,0,0,1,14.357-16.019l18.094-5.651a1.751,1.751,0,0,0,1.1-2.324l-9.931-24.684c-.315-.783-.672-1.59-1.093-2.468v0c-.035-.073-.077-.142-.112-.215A35.912,35.912,0,0,0,128,21.025Zm-124.5,0V9.37H17A32.439,32.439,0,0,1,46.311,28.2a41.382,41.382,0,0,0-4.494,1.074A27.911,27.911,0,0,0,29.556,16.877,1.75,1.75,0,1,0,27.967,20,24.405,24.405,0,0,1,38.5,30.439,42.18,42.18,0,0,0,22.674,41.424,24.307,24.307,0,0,1,11.5,21.025V17.37H17a1.75,1.75,0,0,0,0-3.5H9.75A1.75,1.75,0,0,0,8,15.62v5.4A27.813,27.813,0,0,0,20.446,44.152a41.469,41.469,0,0,0-2.513,3.737A32.4,32.4,0,0,1,3.5,21.025Zm38.607,80.632A24.491,24.491,0,0,0,25.358,82.971L9.073,77.884,18.3,54.959c.13-.322.271-.651.418-.986A40.824,40.824,0,0,1,49.147,88.46l.757,6.086A14.217,14.217,0,0,0,58.339,105.8a10.11,10.11,0,0,0,3.911,1.1v11.706A21.05,21.05,0,0,1,42.107,101.657Zm16.58-1.472a5.313,5.313,0,0,1,10.625,0,2.594,2.594,0,0,1-1.183,2.471,10.567,10.567,0,0,1-8.26,0A2.6,2.6,0,0,1,58.687,100.185Zm60.24-22.3-16.284,5.087a24.492,24.492,0,0,0-16.75,18.686A21.051,21.051,0,0,1,65.75,118.609V106.9a10.115,10.115,0,0,0,3.911-1.1A14.213,14.213,0,0,0,78.1,94.546l.757-6.086a1.749,1.749,0,1,0-3.472-.433l-.758,6.087a10.638,10.638,0,0,1-1.9,4.864,8.8,8.8,0,0,0-17.44,0,10.639,10.639,0,0,1-1.9-4.863l-.757-6.087A44.335,44.335,0,0,0,20.293,50.766,38.451,38.451,0,0,1,53.782,30.985H74.219a38.452,38.452,0,0,1,33.488,19.781A44.1,44.1,0,0,0,96.66,55.458a1.75,1.75,0,0,0,1.793,3.005,40.615,40.615,0,0,1,10.834-4.489c.147.335.288.664.417.985ZM89.49,30.434A24.245,24.245,0,0,1,111,17.37h5.5v3.655a24.308,24.308,0,0,1-11.175,20.4A42.173,42.173,0,0,0,89.49,30.434ZM110.067,47.89a41.353,41.353,0,0,0-2.514-3.738A27.814,27.814,0,0,0,120,21.025v-5.4a1.749,1.749,0,0,0-1.75-1.75H111a27.733,27.733,0,0,0-24.827,15.4A41.43,41.43,0,0,0,81.689,28.2,32.438,32.438,0,0,1,111,9.37h13.5V21.025A32.405,32.405,0,0,1,110.067,47.89Z"/><path d="M96.994,68.652c-.271.08-6.711,2.025-10.678,6.544A1.75,1.75,0,1,0,88.947,77.5c3.288-3.746,8.986-5.48,9.043-5.5a1.75,1.75,0,0,0-1-3.355Z"/><path d="M31.005,68.652a1.75,1.75,0,0,0-.995,3.355c.057.017,5.754,1.751,9.042,5.5A1.75,1.75,0,1,0,41.683,75.2C37.716,70.677,31.277,68.732,31.005,68.652Z"/></g></g></svg>
